Coordinates
version=1
nRows=24
nColumns=22
inDegrees=yes

Units are S.I. units (second, meters, Newtons, ...)
If the header above contains a line with 'inDegrees', this indicates whether rotational values are in degrees (yes) or radians (no).

endheader
time	pelvis_tilt	pelvis_list	pelvis_rotation	pelvis_tx	pelvis_ty	pelvis_tz	hip_flexion_r	hip_adduction_r	hip_rotation_r	knee_angle_r	ankle_angle_r	subtalar_angle_r	hip_flexion_l	hip_adduction_l	hip_rotation_l	knee_angle_l	ankle_angle_l	subtalar_angle_l	lumbar_extension	lumbar_bending	lumbar_rotation
      0.01000000	      0.57819331	     -0.88767906	      1.99335579	      1.05178849	      0.93414691	     -0.02290582	      5.45913135	      0.11935123	    -12.55614117	    -19.12632208	     12.72323905	     -0.81452601	      6.43311970	     -1.91511681	     -8.49470423	    -20.67432616	     12.28869644	     -2.14860523	     -7.72786993	     -1.68484971	     -6.90576319
      0.02000000	      0.58546547	     -0.87686678	      1.98387789	      1.05156035	      0.93416231	     -0.02259143	      5.46561866	      0.12748064	    -12.56412256	    -19.12157650	     12.72138732	     -0.81830226	      6.43837951	     -1.92239609	     -8.49058045	    -20.67007424	     12.28802638	     -2.15336922	     -7.73548419	     -1.69292453	     -6.90496742
      0.03000000	      0.59973194	     -0.86080847	      1.96975646	      1.05129632	      0.93419039	     -0.02221355	      5.47047053	      0.13140774	    -12.58485804	    -19.12377443	     12.69685038	     -0.86479133	      6.44494436	     -1.92894936	     -8.48971860	    -20.67933616	     12.25902473	     -2.19595863	     -7.74860539	     -1.70989034	     -6.86075146
      0.04000000	      0.60797539	     -0.84711034	      1.95517150	      1.05099771	      0.93420822	     -0.02178971	      5.48038635	      0.14415826	    -12.58928917	    -19.11676159	     12.69706400	     -0.86850816	      6.45294992	     -1.93961348	     -8.48958744	    -20.67331760	     12.25689308	     -2.19888761	     -7.75517999	     -1.71917426	     -6.86428860
      0.05000000	      0.61763689	     -0.83334231	      1.93890479	      1.05068278	      0.93422764	     -0.02131953	      5.49047254	      0.15950071	    -12.59377003	    -19.11100064	     12.69627182	     -0.87342514	      6.46198410	     -1.95384356	     -8.48956790	    -20.67025404	     12.25169134	     -2.20176265	     -7.76025402	     -1.73156343	     -6.86317799
      0.06000000	      0.60358484	     -0.83532159	      1.88034265	      1.05033051	      0.93421449	     -0.02074249	      5.54074009	      0.20310554	    -12.52302132	    -19.11587648	     12.66321180	     -1.00050341	      6.51112023	     -2.00224059	     -8.58398973	    -20.69836571	     12.18029784	     -2.23810764	     -7.73516707	     -1.73190317	     -6.79164640
      0.07000000	      0.61748482	     -0.82665063	      1.86375383	      1.04993936	      0.93423262	     -0.02023030	      5.56130148	      0.22541167	    -12.52419521	    -19.12828649	     12.66340234	     -1.02325351	      6.53314401	     -2.02436416	     -8.56992798	    -20.71923238	     12.17503507	     -2.23846905	     -7.75193459	     -1.73865565	     -6.76538900
      0.08000000	      0.60715222	     -0.83496742	      1.83823869	      1.04953640	      0.93421571	     -0.01967419	      5.60753540	      0.27128307	    -12.50781979	    -19.13255474	     12.64270081	     -1.10784352	      6.59244864	     -2.07585690	     -8.60909089	    -20.75918208	     12.15081014	     -2.22842269	     -7.73638015	     -1.72660177	     -6.74388659
      0.09000000	      0.62694592	     -0.82611387	      1.82711835	      1.04910981	      0.93424301	     -0.01913577	      5.62904900	      0.29500878	    -12.50587242	    -19.15619107	     12.63834906	     -1.11982326	      6.61164092	     -2.10021204	     -8.59295052	    -20.77989197	     12.13919335	     -2.22608553	     -7.76128971	     -1.73379099	     -6.73600512
      0.10000000	      0.62533097	     -0.83489178	      1.81698078	      1.04865729	      0.93423608	     -0.01858580	      5.67192541	      0.33856361	    -12.51157120	    -19.16851307	     12.61299873	     -1.17581610	      6.67311314	     -2.15273307	     -8.61655298	    -20.83101467	     12.10422865	     -2.20947866	     -7.76302405	     -1.71714274	     -6.72690718
      0.11000000	      0.64657673	     -0.82491474	      1.80760255	      1.04821433	      0.93426086	     -0.01802766	      5.69367948	      0.36190173	    -12.50895426	    -19.19393724	     12.60693689	     -1.18653545	      6.69537519	     -2.17853251	     -8.60244631	    -20.85844492	     12.09042391	     -2.20673142	     -7.78984148	     -1.72471508	     -6.72050816
      0.12000000	      0.66392855	     -0.82135294	      1.79860641	      1.04774503	      0.93427648	     -0.01748165	      5.72148813	      0.39004433	    -12.51408330	    -19.21799953	     12.59326988	     -1.20559517	      6.73250879	     -2.21448254	     -8.60937157	    -20.90037068	     12.05867339	     -2.20291015	     -7.81625493	     -1.71663370	     -6.71235492
      0.13000000	      0.67929717	     -0.82071912	      1.79141676	      1.04729066	      0.93428431	     -0.01690762	      5.74925252	      0.42390201	    -12.51435723	    -19.24122379	     12.57539314	     -1.22878512	      6.77555258	     -2.25826451	     -8.62335386	    -20.95119562	     12.02384642	     -2.19803658	     -7.83399962	     -1.71151492	     -6.70490977
      0.14000000	      0.69449056	     -0.82014995	      1.78183279	      1.04682393	      0.93429081	     -0.01632459	      5.77769017	      0.45922048	    -12.50793877	    -19.26258662	     12.55746846	     -1.25267855	      6.82073382	     -2.30181385	     -8.63526854	    -21.00354736	     11.99317228	     -2.19253843	     -7.85183233	     -1.70341690	     -6.69592749
      0.15000000	      0.71276857	     -0.82078280	      1.77044197	      1.04633229	      0.93429876	     -0.01573345	      5.80558642	      0.49654590	    -12.49674537	    -19.28564478	     12.53918646	     -1.27682110	      6.86734693	     -2.34656602	     -8.64400721	    -21.06129033	     11.96436627	     -2.18676334	     -7.87599051	     -1.69178995	     -6.68426532
      0.16000000	      0.71101895	     -0.84410329	      1.75491433	      1.04583433	      0.93427285	     -0.01510604	      5.84880892	      0.56383643	    -12.47793812	    -19.29059895	     12.50169212	     -1.33773780	      6.94908418	     -2.42544750	     -8.69038274	    -21.14288489	     11.93707116	     -2.16521186	     -7.87158057	     -1.65573287	     -6.66946838
      0.17000000	      0.73006258	     -0.85352006	      1.74445509	      1.04528967	      0.93427320	     -0.01448790	      5.88390560	      0.61203677	    -12.46401383	    -19.32154590	     12.48097739	     -1.38381932	      7.00833866	     -2.48304664	     -8.69484026	    -21.21772301	     11.91741868	     -2.14547746	     -7.89962870	     -1.63342487	     -6.65460177
      0.18000000	      0.75341867	     -0.86224588	      1.73963055	      1.04472787	      0.93428195	     -0.01387011	      5.91243867	      0.66017916	    -12.45962328	    -19.34834431	     12.45846668	     -1.41922157	      7.06426772	     -2.54041216	     -8.70250235	    -21.29095419	     11.89007201	     -2.12983244	     -7.93398898	     -1.61156870	     -6.64542355
      0.19000000	      0.77286972	     -0.87480435	      1.74213386	      1.04413280	      0.93428441	     -0.01326097	      5.94657941	      0.71142511	    -12.46309997	    -19.37382418	     12.43210018	     -1.45523331	      7.13061982	     -2.60384770	     -8.71552743	    -21.36879207	     11.86120691	     -2.11185899	     -7.96646030	     -1.58350624	     -6.64149848
      0.20000000	      0.80368547	     -0.86910489	      1.74946751	      1.04349802	      0.93430619	     -0.01266828	      5.97521254	      0.74176301	    -12.45713937	    -19.41106423	     12.41861311	     -1.46818297	      7.17550643	     -2.64171710	     -8.70598272	    -21.42366664	     11.83744547	     -2.10654740	     -8.01838670	     -1.57634119	     -6.63831327
      0.21000000	      0.79901148	     -0.90114894	      1.77445452	      1.04282541	      0.93426922	     -0.01209575	      6.03074395	      0.81250675	    -12.48929178	    -19.41756150	     12.37551579	     -1.51917507	      7.29457882	     -2.73466743	     -8.75368850	    -21.53259416	     11.78748976	     -2.07834870	     -8.02828699	     -1.51907513	     -6.66020859
      0.22000000	      0.79548443	     -0.91860150	      1.80499731	      1.04208286	      0.93422927	     -0.01153601	      6.09983352	      0.86745730	    -12.49989439	    -19.44594851	     12.34305820	     -1.56940062	      7.41489743	     -2.80584221	     -8.76694117	    -21.63597728	     11.74970580	     -2.04645855	     -8.04894799	     -1.47763616	     -6.68444875
      0.23000000	      0.79155222	     -0.93201470	      1.84087207	      1.04131165	      0.93418940	     -0.01098745	      6.16527883	      0.91857879	    -12.51433710	    -19.46401858	     12.31475380	     -1.61571455	      7.53694024	     -2.87283729	     -8.78326723	    -21.73614091	     11.70393617	     -2.01810733	     -8.07231764	     -1.44032801	     -6.71389531
      0.24000000	      0.78971192	     -0.94817416	      1.88131042	      1.04051317	      0.93415074	     -0.01043334	      6.22656384	      0.97363767	    -12.53108129	    -19.47559283	     12.28377229	     -1.66172430	      7.66756774	     -2.94600589	     -8.79811135	    -21.85020842	     11.65315128	     -1.99163702	     -8.10057075	     -1.39931050	     -6.74549009
